<?xml version="1.0" standalone="no"?>
<!DOCTYPE svg PUBLIC "-//W3C//DTD SVG 20010904//EN"
 "http://www.w3.org/TR/2001/REC-SVG-20010904/DTD/svg10.dtd">
<svg version="1.0" xmlns="http://www.w3.org/2000/svg"
 width="192.000000pt" height="148.000000pt" viewBox="0 0 192.000000 148.000000"
 preserveAspectRatio="xMidYMid meet">

<g transform="translate(0.000000,148.000000) scale(0.100000,-0.100000)"
fill="#000000" stroke="none">
<path d="M336 1398 l-26 -43 305 -3 c168 -1 305 -6 305 -10 0 -4 -11 -24 -25
-45 l-26 -37 -338 0 -337 0 -19 -37 c-11 -21 -21 -41 -23 -45 -2 -4 134 -9
302 -10 l306 -3 -26 -42 -25 -43 -323 0 -322 0 -19 -37 c-11 -21 -21 -41 -23
-45 -2 -5 134 -8 303 -8 l307 0 -25 -42 -25 -43 -103 -5 -102 -5 -33 -60 c-44
-79 -44 -121 0 -200 l33 -60 129 -3 129 -3 23 -39 c12 -21 22 -41 22 -44 0 -4
-135 -6 -300 -6 -217 0 -300 -3 -300 -11 0 -7 9 -27 21 -45 l21 -34 318 0 319
0 26 -37 c14 -21 25 -41 25 -45 0 -5 -138 -8 -306 -8 l-305 0 23 -42 23 -43
340 -3 340 -2 27 -45 28 -45 -305 0 c-168 0 -305 -2 -305 -5 0 -3 9 -24 20
-45 l20 -40 516 0 c552 0 554 0 601 51 18 21 153 245 153 255 0 2 -181 4 -403
4 l-403 0 -86 148 c-47 81 -98 170 -114 198 l-28 50 113 197 113 197 227 0
226 0 19 -33 c60 -105 156 -278 156 -282 0 -3 -131 -6 -290 -7 l-290 -3 82
-142 83 -143 351 0 351 0 49 82 c75 127 73 141 -50 353 -55 94 -129 222 -166
285 -92 160 -90 156 -131 179 -36 21 -49 21 -582 21 l-546 0 -25 -42z"/>
</g>
</svg>
