<?xml version="1.0" standalone="no"?>
<!DOCTYPE svg PUBLIC "-//W3C//DTD SVG 20010904//EN"
 "http://www.w3.org/TR/2001/REC-SVG-20010904/DTD/svg10.dtd">
<svg version="1.0" xmlns="http://www.w3.org/2000/svg"
 width="600.000000pt" height="601.000000pt" viewBox="0 0 600.000000 601.000000"
 preserveAspectRatio="xMidYMid meet">

<g transform="translate(0.000000,601.000000) scale(0.100000,-0.100000)"
fill="#ffffff" stroke="none">
<path d="M33 5963 c139 -192 2300 -3280 2301 -3289 1 -6 -522 -606 -1161
-1334 -640 -728 -1163 -1327 -1163 -1332 0 -4 116 -8 258 -8 l257 0 1023 1165
c563 641 1026 1165 1030 1164 4 0 349 -489 767 -1086 418 -597 786 -1121 817
-1164 l58 -79 885 0 c559 0 885 4 885 10 0 7 -2368 3392 -2411 3446 -5 6 407
483 1102 1274 611 695 1112 1267 1115 1272 3 4 -113 8 -258 8 l-263 0 -964
-1098 c-531 -603 -969 -1097 -974 -1097 -6 0 -357 494 -780 1098 l-770 1097
-894 0 -895 0 35 -47z m3357 -2943 c1020 -1430 1861 -2609 1869 -2620 13 -20
13 -20 -393 -20 l-406 0 -1847 2588 c-1015 1423 -1857 2602 -1871 2620 l-24
32 408 0 409 -1 1855 -2599z"/>
</g>
</svg>
